<?xml version="1.0" encoding="utf-8"?>
<!-- Generator: Adobe Illustrator 24.3.0, SVG Export Plug-In . SVG Version: 6.00 Build 0)  -->
<svg version="1.1" id="Layer_1" xmlns="http://www.w3.org/2000/svg" xmlns:xlink="http://www.w3.org/1999/xlink" x="0px" y="0px"
	 viewBox="0 0 512 512" style="enable-background:new 0 0 512 512;" xml:space="preserve">
<g>
	<path d="M256.01,112.54c84.55,0,163.47,32.36,222.2,91.09L512,169.81c-67.72-67.76-158.66-105.1-255.99-105.1
		C158.66,64.74,67.74,102.05,0,169.81l33.79,33.81C92.51,144.9,171.44,112.54,256.01,112.54z M391.61,311.18
		c-73.51-73.51-197.71-73.51-271.21,0l33.81,33.81c55.18-55.18,148.41-55.18,203.59,0L391.61,311.18z"/>
	<path d="M457.73,239.09c-109.33-109.37-294.12-109.37-403.44,0l33.81,33.81c91.02-91.02,244.8-91.02,335.82,0L457.73,239.09z"/>
	<circle cx="256.01" cy="399.46" r="47.82"/>
</g>
</svg>
